# xmcd
#
# Track frame offsets:
#	150
#	14049
#	30824
#	45920
#	58935
#	73398
#	93641
#	112975
#	130522
#	147607
#	163745
#	178122
#	201721
#	218870
#	236695
#
# Disc length: 3335 seconds
#
# Revision: 1
# Processed by: cddbd v1.4PL0 Copyright (c) Steve Scherf et al.
# Submitted via: CDmax 2.0
#
DISCID=e40d050f
DTITLE=Eric Clapton w/ Jimmie Vaugahn - Kind Of Blues - d1
DYEAR=1994
DGENRE=Blues
TTITLE0=Motherless Child
TTITLE1=Malted Milk
TTITLE2=How Long Blues
TTITLE3=Kidman Blues
TTITLE4=County Jail
TTITLE5=Forty Four
TTITLE6=Blues Leave Me Alone
TTITLE7=Standin Round Cryin
TTITLE8=Hoochie Coochie Man
TTITLE9=It Hurts Me Too
TTITLE10=Blues Before Sunrise
TTITLE11=Third Degree
TTITLE12=Reconsider Baby
TTITLE13=Sinner's Prayer
TTITLE14=I Can't Judge Nobody
EXTD=Recorded live at the LA Forum11/03/94
EXTT0=
EXTT1=
EXTT2=
EXTT3=
EXTT4=
EXTT5=
EXTT6=
EXTT7=
EXTT8=
EXTT9=
EXTT10=
EXTT11=
EXTT12=
EXTT13=
EXTT14=
PLAYORDER=
